<?xml version="1.0" encoding="utf-8"?>
<!-- Generator: Adobe Illustrator 24.0.2, SVG Export Plug-In . SVG Version: 6.00 Build 0)  -->
<svg version="1.1" id="Layer_1" xmlns="http://www.w3.org/2000/svg" xmlns:xlink="http://www.w3.org/1999/xlink" x="0px" y="0px"
	 viewBox="0 0 96.1 78" style="enable-background:new 0 0 96.1 78;" xml:space="preserve">
<style type="text/css">
	.st0{fill:none;stroke:#1F1F1F;stroke-width:4;stroke-miterlimit:10;}
	.st1{fill:#1F1F1F;}
	.st2{fill:#F4976C;stroke:#1F1F1F;stroke-width:4;stroke-miterlimit:10;}
</style>
<path class="st0" d="M54,49.5c-2.5,7.2-4.9,12.8-5.7,12.9c-1.7,0.1-4.3-5.6-6.8-12.9c-22.6,0.9-40,6.6-40,13.4
	c0,7.5,20.8,13.5,46.5,13.5s46.5-6,46.5-13.5C94.5,56,76.9,50.4,54,49.5z"/>
<path class="st1" d="M52.1,55c-0.6,1.6-1.2,3-1.7,4.2c6,0.3,10.6,1.8,10.6,3.7c0,2.1-5.8,3.8-13,3.8S35,65,35,62.9
	c0-1.8,4.5-3.4,10.5-3.7c-0.6-1.2-1.3-2.6-1.9-4.2c-13,0.6-22.9,3.9-22.9,7.9c0,4.4,12.3,8,27.4,8s27.4-3.6,27.4-8
	C75.4,58.9,65.3,55.6,52.1,55z"/>
<circle class="st2" cx="48" cy="9.6" r="8.6"/>
<path class="st2" d="M48,23c-3.6-0.1-7.1-1.7-9.4-4.4c-0.9-0.5-2-0.6-3-0.2c-3.6,2,8.2,44.2,12.7,44c2.4-0.1,15.6-41.3,13.1-43.2
	c-1.2-0.9-2.9-0.7-4.4-0.3C54.7,21.5,51.5,23,48,23z"/>
</svg>
